<svg width="198" height="248" viewBox="0 0 198 248" fill="none" xmlns="http://www.w3.org/2000/svg">
<path d="M189.278 49.4949L107.824 2.36538C102.368 -0.788459 95.6324 -0.788459 90.176 2.36538L50.2673 25.4596L13.7434 46.5869L8.72174 49.4949C3.32499 52.6233 0 58.3629 0 64.5773V183.423C0 189.637 3.32499 195.377 8.72174 198.505L90.176 245.635C95.6324 248.788 102.368 248.788 107.824 245.635L147.775 222.523L184.385 201.345L189.278 198.514C194.684 195.394 198 189.646 198 183.431V64.5858C198 58.3714 194.675 52.6317 189.278 49.5033V49.4949ZM99 237.479L11.0322 186.517L34.1623 170.019C40.9488 165.178 49.9775 164.796 57.1561 169.044L136.308 215.902L99.0085 237.487L99 237.479ZM186.482 186.873L172.909 194.724L11.5182 101.669V61.1352L25.2104 53.2167L186.482 146.204V186.873ZM165.884 77.252C159.225 81.9319 150.444 82.3558 143.359 78.3372L61.7344 32.0725L98.9915 10.5128L187.454 62.0933L165.875 77.252H165.884Z" fill="white"/>
</svg>
